PathFileType	4	(X/Y/Z)	C:/Users/opensim2020/Desktop/walking_exp_matlab/subject03_walking15_straight_01.trc	
DataRate	CameraRate	NumFrames	NumMarkers	Units	OrigDataRate	OrigDataStartFrame	OrigNumFrames	
100.00	100.00	4	47	mm	100.00	550	196	
Frame#	Time	LFHD			RFHD			LBHD			RBHD			C7			T10			CLAV			STRN			RBAK			LSHO			LUPA			LELB			LFRM			LWRA			LWRB			LFIN			RSHO			RUPA			RELB			RFRM			RWRA			RWRB			RFIN			LASI			RASI			LPSI			RPSI			LTHI			LKNE			LTIB			LANK			LHEE			LTOE			RTHI			RKNE			RTIB			RANK			RHEE			RTOE			*39			*40			*41			*42			*43			*44			*45			*46			
		X1	Y1	Z1	X2	Y2	Z2	X3	Y3	Z3	X4	Y4	Z4	X5	Y5	Z5	X6	Y6	Z6	X7	Y7	Z7	X8	Y8	Z8	X9	Y9	Z9	X10	Y10	Z10	X11	Y11	Z11	X12	Y12	Z12	X13	Y13	Z13	X14	Y14	Z14	X15	Y15	Z15	X16	Y16	Z16	X17	Y17	Z17	X18	Y18	Z18	X19	Y19	Z19	X20	Y20	Z20	X21	Y21	Z21	X22	Y22	Z22	X23	Y23	Z23	X24	Y24	Z24	X25	Y25	Z25	X26	Y26	Z26	X27	Y27	Z27	X28	Y28	Z28	X29	Y29	Z29	X30	Y30	Z30	X31	Y31	Z31	X32	Y32	Z32	X33	Y33	Z33	X34	Y34	Z34	X35	Y35	Z35	X36	Y36	Z36	X37	Y37	Z37	X38	Y38	Z38	X39	Y39	Z39	X40	Y40	Z40	X41	Y41	Z41	X42	Y42	Z42	X43	Y43	Z43	X44	Y44	Z44	X45	Y45	Z45	X46	Y46	Z46	X47	Y47	Z47	

50	0.490	1397.23584	-450.98218	1627.36072	1530.34912	-450.13538	1631.13330	1403.53613	-568.82416	1562.09546	1534.29883	-563.41107	1566.15894	1466.29285	-579.01599	1413.41345	1463.75916	-623.63147	1106.41602	1456.93860	-455.59735	1339.41589	1446.79041	-416.29041	1171.90906	1568.70459	-622.51099	1241.17395	1305.12122	-513.20099	1378.15039	1231.95508	-535.87366	1183.14893	1217.23328	-534.41608	1059.85986	1216.64014	-499.77414	934.40131	1246.93018	-466.70175	820.58990	1198.92346	-495.04495	821.55499	1207.21924	-468.38229	742.29022	1619.02991	-488.24994	1361.43738	1693.84338	-449.13971	1145.64282	1705.42883	-412.31116	1039.36658	1704.70874	-365.97467	910.25824	1663.76086	-321.41434	823.04761	1711.57129	-343.51105	812.35657	1698.46143	-304.70837	749.56287	1338.73328	-470.65213	938.86548	1572.77222	-463.24933	934.79651	1391.20630	-632.77509	958.33752	1540.07568	-624.15625	972.60736	1281.62585	-444.96375	648.20599	1311.86377	-374.34158	484.60385	1326.30493	-417.23035	289.31903	1378.25281	-431.45557	83.50643	1424.22583	-468.30258	51.42725	1381.08447	-286.40494	46.34187	1618.59155	-552.04773	646.37805	1584.65784	-569.66473	468.04556	1596.77527	-645.09546	290.20673	1555.01245	-709.95233	80.74060	1508.96118	-761.10553	51.50243	1530.27808	-572.93951	36.83602	1450.03015	-541.20642	1672.83423																					 
51	0.500	1396.56445	-439.45273	1625.48669	1529.57690	-438.50818	1629.61780	1403.19299	-557.18042	1560.06372	1533.91919	-551.63507	1564.48193	1466.12231	-567.01563	1411.60645	1463.39490	-611.86353	1104.61963	1456.93677	-443.79810	1337.45496	1447.22864	-404.65784	1169.68677	1568.76221	-610.97412	1239.66162	1304.90186	-501.53799	1375.60364	1232.13721	-526.44238	1180.57800	1216.98340	-526.22333	1057.17761	1215.22021	-495.30402	930.87543	1244.98401	-466.96820	815.07391	1196.52185	-494.27414	818.01447	1203.84058	-469.96964	738.00720	1618.92603	-476.23239	1359.96826	1693.88330	-435.07724	1144.81165	1705.47668	-396.83408	1039.09619	1704.51965	-348.38510	910.76172	1663.51367	-302.16541	824.75421	1711.01111	-324.25537	813.23749	1698.05469	-283.95853	751.62244	1339.31104	-458.01340	936.85767	1573.87952	-452.51077	932.86224	1390.31982	-620.07703	955.96124	1539.45459	-613.11603	970.38568	1281.45996	-431.45618	646.53259	1313.56909	-360.54178	483.81693	1325.49792	-392.66110	286.55264	1375.09692	-393.53461	79.07066	1420.26416	-429.05963	45.64896	1380.69763	-245.93259	47.85316	1618.84790	-542.89178	645.19006	1584.99255	-562.68506	466.94199	1596.74670	-641.14508	290.27591	1555.01599	-709.44873	81.91353	1508.73352	-760.75299	53.34745	1530.35669	-572.74982	36.76135	1449.18811	-529.57330	1670.85974																					 
52	0.510	1395.84302	-427.80325	1623.65405	1528.87097	-426.76981	1628.15186	1402.73853	-545.36249	1557.94653	1533.46680	-539.80219	1562.81702	1465.88171	-555.05420	1409.83704	1462.88599	-600.01135	1102.79419	1456.95300	-431.79980	1335.58850	1447.81360	-392.89197	1167.71082	1568.69458	-599.18250	1238.07776	1304.69116	-489.66501	1373.17554	1231.92102	-516.64246	1178.07764	1216.56348	-518.92108	1054.88867	1213.81995	-490.95010	927.52228	1242.38904	-465.85898	810.71472	1194.15503	-493.63208	814.92395	1200.18982	-471.08499	734.15491	1618.87183	-464.18503	1358.44788	1693.91284	-421.16635	1143.93726	1705.40015	-381.49231	1038.77466	1704.28418	-331.05060	911.27795	1663.22290	-283.39178	826.37518	1710.54907	-305.39545	814.14600	1697.61475	-263.73373	753.59430	1339.69873	-444.33850	935.37836	1574.68494	-441.38635	931.25525	1389.33557	-607.44922	953.82312	1538.43518	-601.65863	968.06104	1281.60388	-418.61038	644.25769	1315.52551	-347.03598	482.53012	1324.75342	-369.37360	284.52444	1371.31824	-357.34415	76.47414	1415.79797	-391.29907	41.31546	1380.27417	-207.60855	50.02888	1618.99890	-533.62744	644.07739	1585.36157	-555.40021	465.97931	1596.83862	-636.94293	290.58966	1555.01160	-708.63983	83.17937	1508.67053	-760.27466	55.43533	1530.45557	-572.46802	36.66246	1449.14832	-518.47583	1668.97925																					 
53	0.520	1395.06226	-416.21841	1621.81616	1528.11389	-415.05600	1626.69690	1402.27710	-533.64087	1555.85864	1532.95422	-527.90637	1561.09790	1465.60999	-542.91272	1408.11938	1462.30823	-588.01929	1101.05627	1456.88245	-419.83142	1333.67419	1448.42285	-380.86124	1165.80737	1568.53760	-587.56549	1236.58960	1304.33875	-477.51648	1370.81201	1231.96411	-507.08853	1175.79480	1216.13342	-510.65997	1052.74475	1212.53162	-486.55295	924.44543	1240.02649	-464.91501	806.57288	1192.16956	-492.93698	812.00647	1197.07813	-472.86401	730.78400	1618.80176	-452.20227	1356.94714	1693.87598	-407.43771	1143.08606	1705.22656	-366.38696	1038.42065	1703.91162	-314.08224	911.72308	1662.70972	-265.11621	827.64508	1709.97595	-286.97067	815.00220	1697.37634	-243.89542	755.67706	1340.07642	-431.07797	933.53925	1575.19495	-430.24945	929.69189	1388.07764	-594.53314	951.46686	1537.22437	-590.03174	965.75677	1281.56812	-406.45193	641.57935	1317.69238	-334.01913	480.87170	1324.09570	-347.52817	283.09708	1367.64087	-323.13651	74.64449	1410.89697	-356.13034	38.51493	1379.79187	-171.84665	53.06180	1619.12695	-524.30945	643.16669	1585.78088	-547.97028	465.16269	1596.95630	-632.52411	291.11197	1555.04333	-707.74274	84.69171	1508.59937	-759.85339	57.94241	1530.61011	-572.24988	36.56585	1448.16858	-506.76050	1666.96399																					 
